<svg width="280" height="88" viewBox="0 0 280 88" fill="none" xmlns="http://www.w3.org/2000/svg">
<g clip-path="url(#clip0_3083_21863)">
<path d="M278.75 27V79.5818C278.75 83.862 275.28 87.3318 271 87.3318H251.842H230.908H9.00001C4.7198 87.3318 1.25 83.862 1.25 79.5818V27C1.25 22.7198 4.71979 19.25 9 19.25H226.772C229.413 19.25 231.769 17.5896 232.658 15.1021L237.338 1.99651C237.831 0.615591 239.702 0.417197 240.474 1.66398L249.528 16.2897C250.667 18.1301 252.678 19.25 254.842 19.25H271C275.28 19.25 278.75 22.7198 278.75 27Z" fill="#6A6AF4" stroke="#000091" stroke-width="0.5"/>
<path opacity="0.4" d="M237.04 64.3078C236.803 67.2512 234.759 69.6768 232.693 71.4888C231.289 72.7206 231.937 74.2113 233.619 73.3988C243.739 68.5107 247.162 53.1277 240.385 48.4018C225.808 38.2369 219.112 63.8645 236.007 63.3461C236.569 63.3289 237.085 63.7479 237.04 64.3078Z" fill="#000091"/>
<path opacity="0.4" d="M256.336 64.3454C256.1 67.2888 254.055 69.7144 251.99 71.5264C250.585 72.7582 251.233 74.2489 252.915 73.4364C263.035 68.5483 266.458 53.1653 259.681 48.4394C245.105 38.2745 238.408 63.9021 255.304 63.3837C255.865 63.3665 256.381 63.7855 256.336 64.3454Z" fill="#000091"/>
<path opacity="0.4" d="M41.1801 49.3078C41.4166 52.2512 43.4608 54.6768 45.5264 56.4888C46.9307 57.7206 46.2826 59.2113 44.6006 58.3988C34.4812 53.5107 31.0576 38.1277 37.8348 33.4018C52.4116 23.2369 59.1077 48.8645 42.2125 48.3461C41.6511 48.3289 41.1351 48.7479 41.1801 49.3078Z" fill="#000091"/>
<path opacity="0.4" d="M21.8837 49.3454C22.1202 52.2888 24.1644 54.7144 26.23 56.5264C27.6343 57.7582 26.9862 59.2489 25.3042 58.4364C15.1848 53.5483 11.7613 38.1653 18.5384 33.4394C33.1152 23.2745 39.8113 48.9021 22.9162 48.3837C22.3547 48.3665 21.8388 48.7855 21.8837 49.3454Z" fill="#000091"/>
</g>
<defs>
<clipPath id="clip0_3083_21863">
<rect width="280" height="88" fill="white"/>
</clipPath>
</defs>
</svg>
