<svg width="21" height="21" viewBox="0 0 21 21" fill="none" xmlns="http://www.w3.org/2000/svg">
<circle cx="10.5" cy="10.5" r="10" fill="#FAFAFA" stroke="#878787"/>
<path d="M7.68497 5.74131L7.68497 6.54557C7.68497 7.40842 8.40366 7.59547 9.04299 7.01602C9.35319 6.73486 9.73296 6.52308 10.2233 6.47638C11.9428 6.31262 11.8987 8.44153 10.2233 9.58786C9.25655 10.2493 9.00121 11.3159 9.08887 12.1812C9.13125 12.5996 9.52064 12.8631 9.94114 12.8631L10.2983 12.8631C10.8777 12.8631 11.307 12.3625 11.4268 11.7957C11.7141 10.436 12.8154 10.2609 13.2529 9.58786C14.3173 7.95024 14.0717 6.47638 13.2529 5.16628C12.127 3.3649 7.68497 4.08454 7.68497 5.74131Z" fill="#FAFAFA"/>
<path d="M10.3871 14.3388C12.3522 14.3388 12.4341 16.959 10.3871 16.959C8.66755 16.959 8.58567 14.3388 10.3871 14.3388Z" fill="#FAFAFA"/>
<path d="M7.68497 5.74131L7.68497 6.54557C7.68497 7.40842 8.40366 7.59547 9.04299 7.01602C9.35319 6.73486 9.73296 6.52308 10.2233 6.47638C11.9428 6.31262 11.8987 8.44153 10.2233 9.58786C9.25655 10.2493 9.00121 11.3159 9.08887 12.1812C9.13125 12.5996 9.52064 12.8631 9.94114 12.8631L10.2983 12.8631C10.8777 12.8631 11.307 12.3625 11.4268 11.7957C11.7141 10.436 12.8154 10.2609 13.2529 9.58786C14.3173 7.95024 14.0717 6.47638 13.2529 5.16628C12.127 3.3649 7.68497 4.08454 7.68497 5.74131Z" stroke="#878787" stroke-linecap="round"/>
<path d="M10.3871 14.3388C12.3522 14.3388 12.4341 16.959 10.3871 16.959C8.66755 16.959 8.58567 14.3388 10.3871 14.3388Z" stroke="#878787" stroke-linecap="round"/>
</svg>
