<svg width="55" height="55" viewBox="0 0 55 55" fill="none" xmlns="http://www.w3.org/2000/svg">
<g clip-path="url(#clip0_3083_21772)">
<path d="M32.5479 11.9874C23.9487 6.96291 15.4745 7.25403 11.0647 13.4326C-0.544424 29.1155 13.201 40.0256 21.5248 43.5203C26.8811 44.5475 27.7887 39.2982 32.8908 40.9252C41.7669 47.3592 50.5102 41.8061 49.5917 33.2383C47.9893 26.0007 45.1206 19.3337 32.5479 11.9874Z" fill="#F5F5FE"/>
<path d="M15.1881 19.2965C15.2349 19.0386 15.2777 18.7831 15.316 18.531L11.536 17L7 29.2482L11.158 30.3964C11.3117 30.2926 11.5111 30.0262 11.7398 29.6309M15.1881 19.2965L21.742 19.6793M15.1881 19.2965C14.4678 23.2659 12.7924 27.812 11.7398 29.6309M21.742 19.6793C26.278 17 28.546 17.3828 31.57 19.2965L35.35 18.9138M21.742 19.6793C21.4396 19.9855 21.364 21.5931 21.364 22.3586C20.23 22.7413 19.474 24.6551 20.23 25.4206C22.498 26.1861 24.01 25.0378 24.766 23.1241C25.144 22.7413 26.278 22.3586 27.034 22.7413C27.6388 23.0475 33.838 28.4826 36.862 31.1619M35.35 18.9138L39.13 17L44.8 28.0999L40.264 30.0137C40.063 29.9119 39.8244 29.6431 39.5611 29.2482M35.35 18.9138C36.2956 22.1053 38.2398 27.2661 39.5611 29.2482M39.5611 29.2482L36.862 31.1619M36.862 31.1619C38.374 33.0757 36.484 34.9895 35.35 33.8412M35.35 33.8412L27.79 27.7171M35.35 33.8412C36.106 34.6067 34.216 38.0515 32.326 36.1377L31.9035 35.755M25.144 29.6309L31.9035 35.755M31.9035 35.755C32.704 36.4519 30.814 38.817 29.68 37.6688L28.546 36.7293M25.522 34.224L28.546 36.7293M25.522 34.224C24.9172 33.3054 23.758 33.3309 23.254 33.4585M25.522 34.224C25.522 35.3722 24.8099 36.9798 24.388 37.286M28.546 36.7293C27.79 38.0515 25.9 38.5108 24.388 37.286M24.388 37.286C23.1784 38.5108 20.986 37.6688 21.364 36.1377M11.7398 29.6309L14.182 31.1619M14.182 31.1619C14.56 30.3964 15.6184 29.0185 16.828 29.6309C17.3543 29.9862 17.4735 30.3689 17.3745 30.7792M14.182 31.1619C13.5053 32.8749 14.9485 33.6679 16.072 32.7176M17.3745 30.7792C17.2603 31.2529 16.8551 31.7632 16.45 32.3102C16.331 32.4708 16.2037 32.6062 16.072 32.7176M17.3745 30.7792C18.34 29.6309 20.608 31.1619 20.23 31.9274M20.23 31.9274C19.852 32.4378 19.0204 33.6116 18.718 34.224M20.23 31.9274C21.742 30.7792 23.254 32.2336 23.254 33.4585M18.718 34.224C17.962 35.3722 14.938 34.656 16.072 32.7176M18.718 34.224C17.584 35.755 20.608 37.286 21.364 36.1377M23.254 33.4585C22.75 34.224 21.6664 35.8315 21.364 36.1377" stroke="#000091"/>
</g>
<defs>
<clipPath id="clip0_3083_21772">
<rect width="55" height="55" fill="white"/>
</clipPath>
</defs>
</svg>
