<svg width="55" height="55" viewBox="0 0 55 55" fill="none" xmlns="http://www.w3.org/2000/svg">
<g clip-path="url(#clip0_3083_21764)">
<path d="M32.5479 11.9874C23.9487 6.96291 15.4745 7.25403 11.0647 13.4326C-0.544424 29.1155 13.201 40.0256 21.5248 43.5203C26.8811 44.5475 27.7887 39.2982 32.8908 40.9252C41.7669 47.3592 50.5102 41.8061 49.5917 33.2383C47.9893 26.0007 45.1206 19.3337 32.5479 11.9874Z" fill="#F5F5FE"/>
<path d="M27.5801 39.7819C27.5801 38.4599 27.4275 35.9232 27.7483 33.4044M27.7483 33.4044C27.5561 32.6415 27.336 31.9521 27.0916 31.3316M27.7483 33.4044C27.734 32.6468 27.8201 31.9559 27.9901 31.3316M21.8122 26.5558C17.7426 26.2508 13.3008 30.729 13 34.5204V46C22.3462 46 41.2309 46 42 46C42 44.4056 42 35.477 42 34.5204C41.6519 29.2381 37.4283 26.7307 33.6685 26.9726M21.8122 26.5558C19.4088 28.4617 17.9669 29.8967 18.4475 33.4044M21.8122 26.5558C22.027 26.572 22.2409 26.6014 22.453 26.645M18.4475 33.4044C17.9134 33.7232 16.9414 34.7117 17.326 36.1148C17.8066 37.8686 18.4475 39.9413 18.6077 40.2602C19.8895 39.7819 19.2486 40.1008 19.8895 39.7819M18.4475 33.4044C20.3702 32.926 20.6586 34.074 21.1713 34.8393C21.7053 35.9553 22.8376 38.2832 23.0939 38.6658C21.8122 39.1441 22.1326 38.9847 21.8122 39.1441M23.0939 26.8226C22.7735 28.4617 21.9724 31.1722 21.4917 31.8099C23.0939 30.0561 25.4972 30.2156 27.0916 31.3316M23.0939 26.8226C24.6536 27.3712 26.0796 28.761 27.0916 31.3316M23.0939 26.8226C22.8825 26.7482 22.6687 26.6893 22.453 26.645M32.3867 27.1675C32.6538 28.2898 33.2199 30.6939 33.3481 31.3316C31.2652 30.5344 29.663 30.375 27.9901 31.3316M32.3867 27.1675C30.3415 27.6676 28.6093 29.0573 27.9901 31.3316M32.3867 27.1675C32.5452 27.1287 32.7056 27.0953 32.8674 27.0672M33.6685 26.9726C36.3923 28.94 36.8729 31.0127 36.3923 33.2449M33.6685 26.9726C33.3985 26.99 33.131 27.0215 32.8674 27.0672M36.3923 33.2449C38.5953 34.8393 36.6807 37.5497 35.1105 36.4337C32.8674 34.8393 34.9823 32.2245 36.3923 33.2449ZM32.8674 27.0672C31.105 25.9105 30.1436 23.8149 30.1436 22.833M22.453 26.645C24.0552 26.2296 24.8564 23.6786 24.8564 22.7219M33.0626 13.9526C33.093 11.7509 32.8858 9.42363 32.547 7.25638C31.5856 5.66182 23.895 5.50249 22.453 7.25638C22.3496 8.07992 21.9122 10.8867 21.9431 13.9526M33.0626 13.9526C32.2265 12.5177 22.453 12.5177 21.9431 13.9526M33.0626 13.9526C33.0094 17.811 32.2266 21.2837 30.1436 22.833M21.9431 13.9526C21.9887 18.4848 23.0574 23.5833 27.7403 23.6784C28.6855 23.6246 29.4805 23.3263 30.1436 22.833M27.5801 7.73452V9.80723M27.5801 11.8799V9.80723M27.5801 9.80723H29.663M27.5801 9.80723H25.337M38.4751 39.1441H32.8674V41.8546L35.9116 43.1301L38.4751 41.8546V39.1441Z" stroke="#000091"/>
</g>
<defs>
<clipPath id="clip0_3083_21764">
<rect width="55" height="55" fill="white"/>
</clipPath>
</defs>
</svg>
