<svg width="55" height="55" viewBox="0 0 55 55" fill="none" xmlns="http://www.w3.org/2000/svg">
<g clip-path="url(#clip0_3083_21765)">
<path d="M32.5479 11.9874C23.9487 6.96291 15.4745 7.25403 11.0647 13.4326C-0.544424 29.1155 13.201 40.0256 21.5248 43.5203C26.8811 44.5475 27.7887 39.2982 32.8908 40.9252C41.7669 47.3592 50.5102 41.8061 49.5917 33.2383C47.9893 26.0007 45.1206 19.3337 32.5479 11.9874Z" fill="#F5F5FE"/>
<path fill-rule="evenodd" clip-rule="evenodd" d="M23.6569 11.0639C24.8825 9.20807 26.9585 8 29.9996 8C33.1689 8 35.2979 9.20105 36.5281 11.0639C37.7398 12.8986 38.0311 15.3012 37.7123 17.644C37.3927 19.9918 36.4528 22.3436 35.1187 24.1197C33.7923 25.8854 32.0119 27.1595 29.9996 27.1595C27.909 27.1595 26.1202 25.8902 24.8159 24.1156C23.5072 22.3353 22.631 19.9802 22.3683 17.6327C22.106 15.2894 22.4491 12.8926 23.6569 11.0639ZM25.6215 23.5476C26.8237 25.1832 28.3495 26.1873 29.9996 26.1873C31.5634 26.1873 33.0839 25.1879 34.319 23.5435C35.5465 21.9095 36.4289 19.7145 36.7283 17.5155C37.0283 15.3114 36.735 13.1672 35.6946 11.5919C34.6727 10.0446 32.8819 8.97222 29.9996 8.97222C27.2643 8.97222 25.5169 10.0376 24.4904 11.5919C23.446 13.1733 23.1084 15.3232 23.3551 17.5268C23.6012 19.7261 24.4236 21.9179 25.6215 23.5476ZM25.7948 27.9236L25.9646 28.1046C26.9536 29.1593 28.4608 29.7074 30 29.7074C31.5392 29.7074 33.0464 29.1593 34.0354 28.1046L34.1829 27.9473H34.401C38.9261 27.9473 42.1123 29.4629 44.1489 32.1003C46.1667 34.7134 47 38.3561 47 42.5139V43H13V42.5139C13 38.1389 14.9854 38.9288 17.4672 38.625C19.4526 39.1111 23.2594 37.6847 24.4161 35.7083C24.7084 34.5276 26.5951 33.809 26.4015 32.3056C26.0692 30.8472 23.4234 28.4167 25.5453 27.9502L25.7948 27.9236ZM34.6117 28.9207C33.4052 30.1055 31.6879 30.6796 30 30.6796C28.3228 30.6796 26.6166 30.1127 25.4113 28.9432C24.0958 29.0917 26.5642 30.9192 26.8978 32.3056C27.2128 33.6145 25.2224 33.8514 25.2224 35.4294C24.9115 37.5619 20.9416 38.625 20.9416 38.625C17.9635 40.0833 14.0174 38.1501 13.9941 42.0278H46.0033C45.9399 38.1865 45.1165 34.9651 43.3572 32.6868C41.5729 30.3762 38.7721 28.9666 34.6117 28.9207Z" fill="#000091"/>
<path fill-rule="evenodd" clip-rule="evenodd" d="M20.1236 21.3705C20.1915 21.6372 20.0416 21.9114 19.789 21.983C19.4852 22.0691 19.1906 22.3987 18.9432 22.9311C18.8045 23.2297 18.6995 23.5526 18.6257 23.8434C21.9152 24.0926 25.1061 26.3496 25.6498 30.7925C26.4579 31.0117 26.9304 31.8331 26.9925 32.5746C27.0301 33.0243 26.9295 33.5117 26.6206 33.8936C26.3759 34.196 26.0317 34.3938 25.6099 34.468C24.7658 38.2014 21.3402 40 18.0465 40C14.772 40 11.3672 38.2223 10.4982 34.5332C9.67753 34.4838 9.11552 33.7708 9.01662 33.0343C8.95641 32.5859 9.05633 32.0973 9.37293 31.7009C9.61783 31.3943 9.96781 31.173 10.4094 31.0557C10.5108 28.7614 11.44 26.9729 12.8078 25.7484C14.0274 24.6564 15.5808 24.0253 17.1775 23.8625C16.8026 23.4167 16.3399 23.1512 15.7715 23.2004C15.5107 23.223 15.282 23.0182 15.2606 22.743C15.2393 22.4678 15.4333 22.2264 15.694 22.2038C16.6263 22.1231 17.3278 22.5614 17.8376 23.1449C17.9083 22.9276 17.9929 22.7055 18.0926 22.4908C18.3717 21.8901 18.829 21.2196 19.5433 21.0172C19.796 20.9456 20.0558 21.1038 20.1236 21.3705ZM13.4205 26.511C12.182 27.6198 11.3476 29.2738 11.3476 31.4767V31.9275L10.9227 31.974C10.4646 32.0241 10.2209 32.1906 10.0972 32.3455C9.97275 32.5013 9.92807 32.6963 9.95462 32.894C10.011 33.3135 10.3426 33.6155 10.7689 33.5133L11.2508 33.3978L11.3398 33.9108C11.92 37.2536 14.9129 39 18.0465 39C21.1801 39 24.173 37.2536 24.7532 33.9108L24.8244 33.5009H25.2191C25.6003 33.5009 25.7972 33.3714 25.9001 33.2442C26.0106 33.1077 26.069 32.904 26.0488 32.6626C26.0055 32.145 25.6528 31.7363 25.2191 31.7363H24.7857L24.7473 31.2805C24.3799 26.9182 21.2364 24.835 18.0445 24.8203C16.3484 24.8124 14.6686 25.3936 13.4205 26.511ZM20.6068 35.2567C20.8302 35.4005 20.9009 35.7081 20.7647 35.9439C20.5477 36.3198 20.1564 36.5755 19.754 36.7411C19.3383 36.9122 18.8446 37.0149 18.3372 37.0396C17.3411 37.0879 16.1683 36.8378 15.4005 36.04C15.214 35.8463 15.2116 35.5297 15.3952 35.3329C15.5787 35.1361 15.8786 35.1336 16.065 35.3273C16.5698 35.8518 17.4331 36.0824 18.2937 36.0406C18.7147 36.0202 19.1046 35.9351 19.4098 35.8095C19.7283 35.6783 19.8952 35.5284 19.9558 35.4234C20.0919 35.1877 20.3834 35.113 20.6068 35.2567Z" fill="#000091"/>
</g>
<defs>
<clipPath id="clip0_3083_21765">
<rect width="55" height="55" fill="white"/>
</clipPath>
</defs>
</svg>
