<svg width="80" height="70" viewBox="0 0 80 70" fill="none" xmlns="http://www.w3.org/2000/svg">
<g clip-path="url(#clip0_3969_21498)">
<path d="M47.4743 11.6559C36.5167 5.2889 25.7184 5.65781 20.0992 13.4872C5.30622 33.3603 22.8214 47.1854 33.428 51.6138C40.2533 52.9154 41.4099 46.2636 47.9113 48.3253C59.2217 56.4784 70.3629 49.4415 69.1925 38.5846C67.1505 29.4133 63.4952 20.965 47.4743 11.6559Z" fill="#EBF6F8"/>
<path d="M44.4307 54.0314C44.4307 52.7015 43.1602 40.4761 42.0513 31.2625C41.9112 30.0992 40.334 30.1163 40.2048 31.2808L37.6807 54.0314C37.6806 58.1397 44.4307 58.1397 44.4307 54.0314Z" stroke="#5770BE" stroke-width="2"/>
<path d="M40.0329 33.0772C23.1471 34.1736 19.6295 47.5878 19.6295 54.1602H12.1807C12.1807 44.7114 18.9818 26.8094 40.6807 26.1287C60.7602 25.4988 69.1807 43.4515 69.1807 54.1602C68.1443 54.1602 63.7829 54.1602 61.7318 54.1602C62.0492 47.0601 58.0133 33.8938 42.264 33.0772" stroke="#5770BE" stroke-width="3"/>
<mask id="path-4-inside-1_3969_21498" fill="white">
<ellipse cx="41.0557" cy="53.4221" rx="1.875" ry="2.21428"/>
</mask>
<path d="M40.9307 53.422C40.9307 53.5814 40.8752 53.6717 40.8552 53.6953C40.8468 53.7053 40.8554 53.6913 40.8918 53.6731C40.9314 53.6533 40.9895 53.6363 41.0557 53.6363V57.6363C43.4947 57.6363 44.9307 55.4248 44.9307 53.422H40.9307ZM41.0557 53.6363C41.1219 53.6363 41.1799 53.6533 41.2195 53.6731C41.256 53.6913 41.2646 53.7053 41.2561 53.6953C41.2361 53.6717 41.1807 53.5814 41.1807 53.422H37.1807C37.1807 55.4248 38.6167 57.6363 41.0557 57.6363V53.6363ZM41.1807 53.422C41.1807 53.2627 41.2361 53.1724 41.2561 53.1487C41.2646 53.1388 41.256 53.1528 41.2195 53.171C41.1799 53.1908 41.1219 53.2078 41.0557 53.2078V49.2078C38.6167 49.2078 37.1807 51.4193 37.1807 53.422H41.1807ZM41.0557 53.2078C40.9895 53.2078 40.9314 53.1908 40.8918 53.171C40.8554 53.1528 40.8468 53.1388 40.8552 53.1487C40.8752 53.1724 40.9307 53.2627 40.9307 53.422H44.9307C44.9307 51.4193 43.4947 49.2078 41.0557 49.2078V53.2078Z" fill="#5770BE" mask="url(#path-4-inside-1_3969_21498)"/>
</g>
<defs>
<clipPath id="clip0_3969_21498">
<rect width="80" height="70" fill="white"/>
</clipPath>
</defs>
</svg>
