<svg width="58" height="55" viewBox="0 0 58 55" fill="none" xmlns="http://www.w3.org/2000/svg">
<path d="M33.8347 9.94393C25.2252 4.9413 16.7408 5.23115 12.3257 11.3828C0.702609 26.9974 13.1533 39.5 22.7983 41.3394C28 42.3314 30.3553 36 34.178 38.7556C43 45.1149 51.8186 39.6326 50.899 31.1022C49.2946 23.8961 46.4225 17.2582 33.8347 9.94393Z" fill="#EBF6F8"/>
<path d="M10 20.5909H34.5455C35.9262 20.5909 37.0455 21.7102 37.0455 23.0909V38.1471C37.0455 39.5278 35.9262 40.6471 34.5455 40.6471H16.7895C16.3988 40.6471 16.0234 40.7996 15.7434 41.0721L10.4947 46.1795V41.2741C10.4947 40.7617 10.0793 40.3463 9.56684 40.3463C8.42536 40.3463 7.5 39.4209 7.5 38.2794V23.0909C7.5 21.7102 8.61929 20.5909 10 20.5909Z" stroke="#26366E" stroke-linecap="round"/>
<path d="M37.467 33.635H39.2164C39.4734 33.635 39.7205 33.734 39.9065 33.9113L45.1603 38.9214C45.4785 39.2249 46.0053 38.9993 46.0053 38.5596V33.768C46.0053 33.5318 46.1969 33.3402 46.4332 33.3402V33.3402C47.8508 33.3402 49 32.191 49 30.7734V16C49 14.3431 47.6569 13 46 13H21.4545C19.7977 13 18.4545 14.3431 18.4545 16V20.0207" stroke="#26366E" stroke-linecap="round" stroke-linejoin="round"/>
</svg>
