<svg width="57" height="55" viewBox="0 0 57 55" fill="none" xmlns="http://www.w3.org/2000/svg">
<path d="M33.0937 9.94393C24.4842 4.9413 15.9998 5.23115 11.5847 11.3828C-0.0383575 26.9974 12.4123 39.5 22.0574 41.3394C27.259 42.3314 29.6143 36 33.437 38.7556C42.259 45.1149 51.0776 39.6326 50.158 31.1022C48.5536 23.8961 45.6815 17.2582 33.0937 9.94393Z" fill="#EBF6F8"/>
<path d="M45.062 40.0203C31.352 50.5663 1.40632 16.0191 10.7868 6.0186C14.8277 1.80021 18.3635 5.10944 20.889 7.65504C24.6774 11.4734 25.5793 15.4736 19.8067 18.3829C20.5282 23.1104 25.5793 29.838 32.4344 31.1108C34.2383 27.2924 36.4031 24.9286 43.6189 30.3834C46.6856 32.5654 48.67 36.5656 45.062 40.0203Z" stroke="#26366E"/>
</svg>